<mxfile host="app.diagrams.net" agent="Mozilla/5.0 (Windows NT 10.0; Win64; x64; rv:142.0) Gecko/20100101 Firefox/142.0" version="28.1.1">
  <diagram name="Page-1" id="dxIZ_2zdy7K_bjG549Ky">
    <mxGraphModel dx="1042" dy="712" grid="0" gridSize="10" guides="1" tooltips="1" connect="1" arrows="1" fold="1" page="0" pageScale="1" pageWidth="850" pageHeight="1100" math="0" shadow="0">
      <root>
        <mxCell id="0" />
        <mxCell id="1" parent="0" />
        <mxCell id="NbQW37odatUNeAf5Amh3-3" value="" style="edgeStyle=none;curved=1;rounded=0;orthogonalLoop=1;jettySize=auto;html=1;fontSize=12;startSize=8;endSize=8;" parent="1" source="NbQW37odatUNeAf5Amh3-1" target="NbQW37odatUNeAf5Amh3-2" edge="1">
          <mxGeometry relative="1" as="geometry" />
        </mxCell>
        <mxCell id="NbQW37odatUNeAf5Amh3-1" value="ThvAntrag-app," style="rounded=0;whiteSpace=wrap;html=1;fontFamily=Verdana;" parent="1" vertex="1">
          <mxGeometry x="140" y="170" width="120" height="60" as="geometry" />
        </mxCell>
        <mxCell id="NbQW37odatUNeAf5Amh3-5" value="" style="edgeStyle=none;curved=1;rounded=0;orthogonalLoop=1;jettySize=auto;html=1;fontSize=12;startSize=8;endSize=8;" parent="1" source="NbQW37odatUNeAf5Amh3-2" target="NbQW37odatUNeAf5Amh3-4" edge="1">
          <mxGeometry relative="1" as="geometry" />
        </mxCell>
        <mxCell id="NbQW37odatUNeAf5Amh3-2" value="ThvAntrag-bf." style="rounded=0;whiteSpace=wrap;html=1;fontFamily=Verdana;" parent="1" vertex="1">
          <mxGeometry x="380" y="170" width="120" height="60" as="geometry" />
        </mxCell>
        <mxCell id="NbQW37odatUNeAf5Amh3-4" value="haftpflicht-rechnen-bas." style="rounded=0;whiteSpace=wrap;html=1;fontFamily=Verdana;" parent="1" vertex="1">
          <mxGeometry x="620" y="170" width="120" height="60" as="geometry" />
        </mxCell>
        <mxCell id="NbQW37odatUNeAf5Amh3-6" value="" style="edgeStyle=none;curved=1;rounded=0;orthogonalLoop=1;jettySize=auto;html=1;fontSize=12;startSize=8;endSize=8;" parent="1" source="NbQW37odatUNeAf5Amh3-7" target="NbQW37odatUNeAf5Amh3-10" edge="1">
          <mxGeometry relative="1" as="geometry">
            <mxPoint x="377" y="302" as="targetPoint" />
          </mxGeometry>
        </mxCell>
        <mxCell id="NbQW37odatUNeAf5Amh3-7" value="ThvAntrag-app," style="rounded=0;whiteSpace=wrap;html=1;fontFamily=Verdana;" parent="1" vertex="1">
          <mxGeometry x="137" y="272" width="120" height="60" as="geometry" />
        </mxCell>
        <mxCell id="NbQW37odatUNeAf5Amh3-8" value="" style="edgeStyle=none;curved=1;rounded=0;orthogonalLoop=1;jettySize=auto;html=1;fontSize=12;startSize=8;endSize=8;" parent="1" target="NbQW37odatUNeAf5Amh3-10" edge="1">
          <mxGeometry relative="1" as="geometry">
            <mxPoint x="497" y="302" as="sourcePoint" />
          </mxGeometry>
        </mxCell>
        <mxCell id="NbQW37odatUNeAf5Amh3-10" value="haftpflicht-rechnen-bas." style="rounded=0;whiteSpace=wrap;html=1;fontFamily=Verdana;" parent="1" vertex="1">
          <mxGeometry x="380" y="272" width="120" height="60" as="geometry" />
        </mxCell>
        <mxCell id="NbQW37odatUNeAf5Amh3-12" value="1" style="ellipse;whiteSpace=wrap;html=1;aspect=fixed;strokeWidth=2;fontFamily=Tahoma;spacingBottom=4;spacingRight=2;strokeColor=#d3d3d3;" parent="1" vertex="1">
          <mxGeometry x="95" y="190" width="20" height="20" as="geometry" />
        </mxCell>
        <mxCell id="NbQW37odatUNeAf5Amh3-13" value="2" style="ellipse;whiteSpace=wrap;html=1;aspect=fixed;strokeWidth=2;fontFamily=Tahoma;spacingBottom=4;spacingRight=2;strokeColor=#d3d3d3;" parent="1" vertex="1">
          <mxGeometry x="95" y="292" width="20" height="20" as="geometry" />
        </mxCell>
      </root>
    </mxGraphModel>
  </diagram>
</mxfile>
